<!DOCTYPE svg PUBLIC "-//W3C//DTD SVG 1.1//EN" "http://www.w3.org/Graphics/SVG/1.1/DTD/svg11.dtd">
<!-- Uploaded to: SVG Repo, www.svgrepo.com, Transformed by: SVG Repo Mixer Tools -->
<svg fill="#000000" width="800px" height="800px" viewBox="0 0 24 24" id="edit-user" data-name="Flat Color" xmlns="http://www.w3.org/2000/svg" class="icon flat-color">
<g id="SVGRepo_bgCarrier" stroke-width="0"/>
<g id="SVGRepo_tracerCarrier" stroke-linecap="round" stroke-linejoin="round"/>
<g id="SVGRepo_iconCarrier">
<path id="primary" d="M6,7a5,5,0,1,1,5,5A5,5,0,0,1,6,7Zm5,12.61a2,2,0,0,1,.59-1.41l4-4A6.26,6.26,0,0,0,14,14H8a6,6,0,0,0-6,6,2,2,0,0,0,2,2h6a1,1,0,0,0,1-1Z" style="fill: #0c0d0d;"/>
<path id="secondary" d="M20.31,12.29l1.4,1.4a1,1,0,0,1,0,1.4L15.1,21.71a1.05,1.05,0,0,1-.71.29H13a1,1,0,0,1-1-1V19.61a1.05,1.05,0,0,1,.29-.71l6.62-6.61A1,1,0,0,1,20.31,12.29Z" style="fill: #2ca9bc;"/>
</g>
</svg>